# xmcd CD database file
#
# Track frame offsets:
#	150
#	17203
#	36880
#	53405
#	69373
#	85448
#	105133
#	126348
#	143173
#
# Disc length: 2233 seconds
#
# Revision: 0
# Processed by: cddbd v1.4PL0 Copyright (c) Steve Scherf et al.
# Submitted via: CDex 1.50beta10
#
DISCID=6f08b709
DTITLE=Alfredo de la Fe - Salsa
DYEAR=1990
DGENRE=Salsa
TTITLE0=La Mucura
TTITLE1=La salsa nacio hace tiempo
TTITLE2=oye bien
TTITLE3=Hay que saber vivir
TTITLE4=Negro por excelencia
TTITLE5=Barranquilla es
TTITLE6=Suena tu timbal
TTITLE7=Oigan muchachos
TTITLE8=Salsa computarizada
EXTD=YEAR: 1990
EXTT0=
EXTT1=
EXTT2=
EXTT3=
EXTT4=
EXTT5=
EXTT6=
EXTT7=
EXTT8=
PLAYORDER=
